<svg xmlns="http://www.w3.org/2000/svg" width="500" height="500" viewBox="0 0 500 500"><path fill="#FBFBFB" d="M187.043 29.396c1.11-1.044 2.233-2.101 3.356-3.144.898.951 1.823 1.902 2.735 2.854.013 3.329 0 6.658-.026 10.001-2.206-.476-4.954-1.176-5.668-3.633-.291-2.009-.304-4.057-.397-6.078zM446.972 85.015c1.493-.951 2.735-3.369 4.809-2.537 4.148 1.176 8.085 3.039 12.167 4.439-.066 1.651-.119 3.303-.172 4.967-1.163 1.03-2.325 2.074-3.475 3.131-5.23-2.179-9.577-5.826-13.329-10zM28.47 256.574c2.153-1.916 4.32-3.831 6.487-5.734 1.189 1.348 2.497 2.642 3.541 4.135-.211 3.197-2.114 6.209-4.201 8.561-2.246 1.414-4.294-.727-6.037-1.902.078-1.691.144-3.382.21-5.06zM13 319.195c2.087-2.206 4.716-3.501 7.808-3.157.912 1.017 1.85 2.035 2.774 3.052l.185 6.791c-1.176.951-2.312 1.942-3.567 2.788-3.131-.066-4.769-3.395-6.989-5.166l-.211-4.308zM234.168 456.208c3.263-.225 6.526-.581 9.684-1.453 5.152.766 10.067 2.682 14.149 5.971-1.308 1.255-2.603 2.523-3.897 3.792-1.308-.859-2.629-1.704-3.937-2.55l-3.514-.33c-2.854-1.85-6.236-2.272-9.552-2.404-.978-1.018-1.956-2.022-2.933-3.026zM62.793 486.422c2.695-2.827 5.694-5.76 9.961-5.166l.132 5.707c-1.731 1.665-3.448 3.342-5.166 5.033-1.665-.066-3.316-.132-4.967-.185l.04-5.389zM453.876 32.219c-.172-2.224 2.539-1.785 3.971-1.928.621.554 1.241 1.117 1.881 1.671 1.623.01 3.265-.01 4.897.22 1.804 2.625-2.158 3.379-3.694 4.535-.955.048-1.9.105-2.845.172l-1.671-1.413c-1.756-.154-3.14-1.347-2.539-3.257zM346.393 58.51c1.9-.21 3.723-.754 5.317-1.842 1.976.964 3.904 2.024 5.737 3.255 1.48.038 2.969.048 4.458.076.42.372 1.26 1.126 1.69 1.499 2.893-.057 5.795-.057 8.697.01l1.718-1.537c2.081.019 4.162.019 6.253.029 2.74 1.995 5.9 3.465 9.375 2.978.42.401 1.241 1.222 1.652 1.632 1.967.01 3.924 0 5.89-.076 2.091-2.262 5.26-1.594 8.009-1.575 1.232 1.222 2.635 2.358 3.484 3.904 1.537 3.484 4.83 5.613 7.255 8.42 3.675.057 7.341.124 11.017.019.936 1.146 2.53 2.091 2.425 3.79.048 2.291-2.396 4.229-1.317 6.558 1.461 2.043 3.618 3.456 5.136 5.47 2.406 3.704 3.408 8.229 6.635 11.389 1.585 6.272-1.174 13.346 1.709 19.427 1.05 3.255-1.05 6.32-2.845 8.859-.019.697-.067 2.1-.095 2.797.554.601 1.107 1.203 1.671 1.804-.019 2.453-.019 4.916.019 7.379-.563.678-1.126 1.356-1.68 2.033-.296 3.58.936 7.628-1.146 10.826-2.11 2.797-2.587 6.768-1.06 9.938 1.737 3.188-.668 7.418 2.129 10.167.048.668.124 2.005.162 2.673 2.033 2.94 4.64 7.198 2.11 10.568-2.243 2.224-3.16 5.298-4.754 7.952.305 2.721 2.387 4.811 4.229 6.673.067 2.243.258 4.716-1.585 6.367-.143 5.537-.095 11.083-.019 16.62 2.539 3.131 4.172 7.503 2.52 11.427-2.119 4.573-1.05 10.1 2.167 13.88l-.086 2.654c-1.842 2.224-1.928 5.27-3.064 7.847.181 1.995 1.785 3.628 1.613 5.709.391 2.883-2.73 4.21-3.513 6.673-.687 2.415-3.58 4.573-2.072 7.227 2.043 4.038 6.845 7.637 5.241 12.678-2.425 4.334-.516 9.375-1.432 13.985-.764 1.919-1.871 3.675-2.902 5.451-.067 2.959-.067 5.919-.029 8.888l1.499 1.527c.029 3.16-.095 6.32.057 9.47.363 2.568 2.072 4.678 3.532 6.73 2.826-.516 7.284.01 7.313 3.685-2.158 3.083-5.212 5.394-7.78 8.124.01.936.038 1.871.067 2.807 1.375 2.215 2.434 4.668 4.468 6.396.067 1.575.095 3.16.124 4.745-3.055 3.188-5.26 7.141-7.465 10.94 1.384 3.103 3.733 5.508 5.976 7.981-.382 1.613-1.279 3.045-1.852 4.592-2.215 2.606-4.964 4.706-7.112 7.379-1.031 3.103-.134 6.32 1.184 9.174.936 3.16-2.081 4.983-3.246 7.494-.993 2.138-2.883 3.628-4.535 5.241l-.143 3.284c-1.537 1.317-2.721 3.446-4.897 3.694-3.628.172-5.05 4.181-8.277 5.298-2.893 1.718-6.453.239-9.432 1.289-2.282 2.32-4.783 4.353-7.713 5.833-1.986.076-3.981.115-5.967.124l-1.881-1.728c-5.461.124-10.921-.181-16.363.134-2.912 1.709-4.878 4.745-7.418 6.969.172 2.606.143 5.47-2.329 7.055-.869-.869-1.709-1.737-2.549-2.625-.076-2.721.745-6.043-1.737-7.99-1.947-2.52-5.279-1.804-8.029-1.823l-1.842-1.69c-4.162.029-8.324-.105-12.477.01-1.308-.143-2.157 1.031-3.179 1.604-2.692.086-5.68-.306-7.99 1.403-1.785 1.356-3.962 1.852-6.167 1.938-.477-2.673-.592-5.384-.611-8.095-3.274-.172-4.353 3.083-5.422 5.518-1.184 3.36-4.955 4.935-5.842 8.477-1.079 3.303-3.904 5.48-6.215 7.914-2.186.22-4.267-.468-5.527-2.358 1.957-2.473 2.501-5.718 4.573-8.105.019-1.451.038-2.893.076-4.324-1.336-1.317-2.673-2.644-3.99-3.981-2.482-.019-4.974-.019-7.456-.029-.611.563-1.222 1.136-1.833 1.709-2.511-.01-5.031-.01-7.542.01-.611-.582-1.222-1.146-1.833-1.709-2.463-.019-4.916 0-7.37.095-2.253 1.766-4.869 3.055-7.752 3.274-3.055 1.871-6.816 4.286-10.415 2.272-2.711-.716-4.134-4.009-7.036-3.981-2.578 1.088-5.556 1.279-7.828 3.026-5.079.162-10.157.019-15.236.076-.611-.544-1.231-1.079-1.842-1.604-3.933.535-7.866-.487-10.892-3.064l-2.558-.115-1.928 1.566c-2.597.153-4.869 1.652-7.475 1.766-.63.468-1.251.955-1.871 1.441h-23.093c-.611-.525-1.231-1.041-1.842-1.556-2.32.248-4.544-.305-6.616-1.308-2.73-1.136-4.22 2.215-6.501 3.007-2.826 1.165-5.48 3.551-8.745 2.883-1.995-.162-3.523-1.547-5.212-2.434-3.007-1.212-6.463-.802-9.136.983-1.747-.869-3.484-1.795-5.508-1.68l-1.623-1.48c-3.761-.143-7.742.678-11.217-1.174-4.344-.63-9.069-.811-13.126 1.184-5.881.678-9.575-4.649-13.327-8.21-.964-1.231-2.597-1.012-3.962-1.184-.458-.353-1.375-1.069-1.823-1.422-1.537-.019-3.064-.019-4.592-.01l-1.403-1.413-2.224-.535c-.678-2.463-1.976-4.668-3.284-6.835.029-2.453-.067-4.897-.124-7.341-1.375-2.158-2.463-4.535-4.43-6.234-.105-.525-.325-1.575-.439-2.1l-2.721-2.501c-.057-1.098-.095-2.196-.134-3.284-2.492-2.759-5.518-5.031-7.685-8.057-1.117-2.864 1.833-4.401 2.969-6.539.344-4.449.019-8.926.076-13.384-.563-.611-1.126-1.222-1.699-1.823l.105-4.515 1.489-1.623c.401-3.618 2.501-6.854 1.604-10.654-.363-.391-1.088-1.174-1.451-1.575-.086-4.754.086-9.518-.029-14.272.076-1.26-.993-2.11-1.537-3.122.668-3.78-2.978-7.093-1.146-10.759.859-2.138 1.069-4.573 2.616-6.387.21-11.255 0-22.52.105-33.785-1.422-2.043-3.99-3.007-5.728-.697-1.632 0-3.274.048-4.888-.248-1.289-1.842.601-3.656 2.215-4.286 2.759-1.117 4.582-3.551 6.644-5.566.095-8.258.029-16.515.038-24.773.573-.63 1.146-1.251 1.728-1.871-.057-1.508-.057-3.007-.076-4.496-.41-.401-1.231-1.184-1.642-1.575-.019-3.083 0-6.157.029-9.231.554-.601 1.117-1.203 1.68-1.795-.01-3.504-.038-7.007-.038-10.511-.573-.649-1.136-1.289-1.709-1.928.029-1.957.038-3.914.048-5.871.554-.611 1.117-1.212 1.68-1.814-.019-5.651.038-11.293-.048-16.935l-1.661-1.566c.01-1.069.048-2.148.095-3.217.41-.391 1.231-1.174 1.632-1.566-.038-1.403-.048-2.816-.076-4.22-1.919-2.549-3.551-5.518-3.141-8.821.458-6.119-1.585-13.269 3.227-18.186 1.193-4.706-4.105-7.733-3.169-12.343.334-2.32 1.795-4.239 2.94-6.205.22-1.709.382-3.561 1.661-4.859.038-1.89.019-3.771 0-5.661-.363-.372-1.079-1.136-1.432-1.508-.019-4.124-.105-8.239.029-12.363.735-1.174 1.585-2.387 1.432-3.857-.076-4.095.115-8.2-.086-12.286-.706-1.89-1.632-3.723-1.527-5.823 4.019-4.267 8.983-7.809 11.79-13.05 1.613-1.757 2.339-4.172 4.076-5.785 2.912-1.461 5.909-2.759 8.706-4.43 2.683-1.27 5.776-.621 8.639-.821.993-.659 1.9-1.737 3.217-1.604 7.971-.076 15.952 0 23.923.01 1.461.095 2.883-.296 4.057-1.184 1.814 1.461 4.277 1.088 6.444 1.203 2.387-.029 4.907.277 7.112-.869 2.501-1.193 5.356-.544 8.029-.64.592-.496 1.193-.993 1.795-1.489l3.007-.01c.391-.363 1.193-1.088 1.594-1.442 1.317 1.327 3.122 1.537 4.897 1.556.42.344 1.26 1.031 1.68 1.365 3.885-.716 7.169 2.568 11.074 1.413 2.864-1.165 6.129-2.329 9.117-.821 2.797 1.413 5.986.831 8.993.869 1.661-2.033 4.048-3.122 6.31-4.325 2.597 1.604 5.356 3.007 8.181 4.181 5.021.42 10.081.029 15.112.191 2.94.267 5.48-1.422 7.78-3.017 1.785-.134 3.513.2 4.869 1.442 3.876.735 7.685-.535 10.673-3.017 4.506-.115 9.012-.095 13.508-.038 1.68 1.203 3.58 2.014 5.346 3.064 3.37.095 6.749.105 10.119 0 1.642-.974 3.37-1.804 5.021-2.759 1.642.945 3.36 1.737 4.964 2.759 3.914.105 7.828.038 11.752.115.43-.382 1.298-1.146 1.737-1.527l15.57.01c.41-.42 1.222-1.26 1.623-1.69 2.301-.095 4.83-.305 6.511 1.604 2.511.095 5.012.095 7.532.076.601.496 1.203.993 1.823 1.489 3.398-.019 6.797.038 10.196-.095 2.321-2.307 6.025-.465 8.297-2.861zm-15.637 12.439c-22.596-.048-45.193.019-67.789-.038-1.451-.143-2.663.678-3.79 1.461l-2.797.067c-.41.353-1.222 1.069-1.623 1.422-1.336-1.327-3.141-1.499-4.916-1.527-.401-.363-1.212-1.088-1.623-1.451-1.375.038-2.74.086-4.114.153-1.002.535-1.871 1.547-3.112 1.384-3.857.029-7.704.057-11.551-.019-1.871-.449-3.57-1.48-5.508-1.661-.468.43-1.394 1.289-1.862 1.709-24.84-.076-49.679-.029-74.529-.019l-1.928-1.785c-1.155.831-2.406 1.747-3.885 1.747-4.706.162-9.422-.115-14.129.143-.974.563-1.776 1.68-3.026 1.547-4.162.134-8.334-.067-12.496.038l-1.862-1.699c-1.947.01-3.885.01-5.823.01l-2.005 1.547c-2.138.143-4.143.888-5.995 1.928-2.654 1.842-6.11 2.406-8.277 4.935-1.165 1.279-2.558 2.329-4.229 2.816-1.957 3.475-4.124 6.94-6.845 9.871-.019 2.358.305 4.84-.811 7.017-.945 2.177-.401 4.754-1.862 6.759-.878 2.902-.286 6.033-.363 9.04 2.711 2.988 1.231 7.313 1.47 10.94-2.711 2.95-1.174 7.303-1.442 10.902 2.959 3.427.936 8.372 1.518 12.468-.535.592-1.079 1.193-1.613 1.795.43 3.647-1.203 8.048 1.566 11.036-.468 4.029 1.442 8.897-1.442 12.258-.21 8.162-.172 16.324-.048 24.487 1.833 1.671 1.594 4.143 1.566 6.406-.41.401-1.231 1.212-1.642 1.623-.01 14.434-.01 28.868 0 43.312.401.42 1.203 1.27 1.613 1.69-.019 3.561-.01 7.131.019 10.692-.401.43-1.212 1.27-1.613 1.69.01 2.043-.01 4.095-.029 6.148.391.372 1.174 1.126 1.566 1.508.124 36.143.01 72.285.057 108.428.267 2.129 1.489 4.019 1.709 6.186 1.652 2.921 2.473 6.291 3.083 9.575.286.382.859 1.146 1.136 1.527-.229 2.463 1.069 4.353 2.835 5.9 2.415 4.859 5.871 9.136 9.881 12.792 3.341 4.315 8.869 5.489 13.327 8.258 3.885 1.165 7.752 2.177 11.876 1.728 2.893 2.912 7.322 1.222 10.94 1.632.611-.563 1.231-1.117 1.842-1.671 5.632-.029 11.265-.01 16.897-.019l1.652 1.661 4.41.057c.63-.573 1.26-1.146 1.9-1.709 9.527-.01 19.064.019 28.591-.029 1.823-.21 3.236 1.05 4.783 1.776.802-.516 1.575-1.069 2.31-1.671 7.15-.181 14.301-.029 21.46-.086.63.582 1.27 1.174 1.9 1.766 2.205.038 4.611.134 6.196-1.69 3.322-.277 6.711.296 10.005-.305 2.635-1.126 5.68-2.024 8.458-.773 3.666 1.795 7.847.764 11.761 1.002 3.446-.21 7.398.888 10.358-1.422 2.893-.048 5.804-.153 8.706-.019 1.986.086 3.637 1.594 5.68 1.47 12.592.01 25.183-.124 37.775.057 1.604 1.842 3.99 1.718 6.224 1.661.611-.592 1.222-1.184 1.833-1.757 3.57.22 7.169.191 10.444-1.422 6.673.449 13.814-1.384 20.105 1.441 2.74.63 4.993-1.68 7.694-1.585 3.007-.391 5.499 2.014 8.515 1.623l18.215-.067c2.921-.955 5.852-1.919 9.002-1.461 6.205-3.733 13.298-6.148 18.835-10.864 1.623-3.036 3.866-5.671 5.451-8.735l.076-2.816c.372-.372 1.136-1.098 1.508-1.461.095-2.711-.067-5.422.095-8.124.573-1.947 1.48-3.799 1.585-5.861.496-.592 1.002-1.184 1.518-1.776.038-4.038.019-8.076.019-12.105-.41-.43-1.241-1.27-1.661-1.699-.019-1.499-.048-2.998-.057-4.487.563-.611 1.126-1.232 1.699-1.842.038-5.079.01-10.157.019-15.236-.582-.649-1.155-1.298-1.718-1.947.067-9.833-.019-19.675.057-29.517.22-1.795-.706-3.341-1.365-4.916 1.871-4.449 2.1-9.766 0-14.186-.888-2.272 2.263-4.229 1.107-6.501-1.165-2.291-1.957-5.002-.582-7.398 1.489-2.893 1.002-6.282-.391-9.098-1.461-2.94 1.518-5.508 1.232-8.449-.095-10.539.057-21.078-.067-31.618-2.005-5.031-2.243-10.997-.162-16.048 1.461-4.038-2.052-7.57-1.308-11.618.582-6.024-1.232-12.429 1.394-18.11.239-4.172.659-8.554-1.251-12.42-.22-17.814-.067-35.656-.076-53.469 1.795-4.506 2.32-9.814.258-14.339-.802-2.702.172-5.604-.487-8.353-.85-2.396-2.205-4.62-4.134-6.301l-.554-2.1c-2.845-2.606-3.971-6.654-7.332-8.811-7.265-4.344-13.957-10.234-22.396-12.057-1.432-1.193-3.179-1.613-5.002-1.547l-1.537-1.375c-3.561.687-6.511-2.033-10.043-1.547-5.756.535-11.876-1.165-17.269 1.432-2.835.267-5.68-.01-8.515.086-2.549-.019-5.327.449-7.532-1.146-2.271 1.613-5.116 1.117-7.713 1.155zM156.029 92.467c2.415.22 4.267-1.881 6.682-1.642 2.768-.506 4.907 1.852 7.608 1.632 7.389 0 14.768-.01 22.148 0l1.766-1.527c1.967.01 3.933-.019 5.9-.038.458.391 1.365 1.165 1.814 1.556 4.115-.01 8.229 0 12.334.01l1.833-1.728c2.396.019 4.334 1.804 6.73 1.737 3.227-.029 6.902.535 9.565-1.737 2.215 2.444 5.632 1.604 8.554 1.728 3.628-.229 7.561.764 10.873-1.193 3.351-.831 6.931-.105 10.367-.372l1.766 1.527c5.365-.439 11.169 1.251 16.153-1.308 3.828-.506 7.733-.019 11.599-.21l1.785 1.537c3.847-.162 7.971.764 11.465-1.327 6.387-.496 12.84.019 19.265-.229.458.391 1.384 1.165 1.842 1.547 4.115.01 8.219.029 12.324.019l1.518-1.298c2.205 1.986 5.279 1.146 7.962 1.308 4.496-.239 9.279.859 13.413-1.47 7.313-.21 14.644.048 21.966-.095l1.833 1.556 4.582.01c.391.372 1.193 1.107 1.585 1.47 3.828.095 6.978 2.53 10.262 4.143 2.119 3.112 4.334 6.234 6.062 9.613.086 5.098.01 10.196.076 15.293.181 2.988-2.215 5.48-1.547 8.554.525 5.107-1.165 10.625 1.384 15.351.907 2.358-.792 4.439-1.308 6.635-.153 3.523-.029 7.045-.057 10.568-.162 2.062 1.489 3.704 1.499 5.728.01 12.735-.029 25.479.01 38.214l-1.499 1.785c.01 2.558.01 5.117.01 7.675.372.458 1.126 1.356 1.508 1.804-.057 19.513-.048 39.026-.01 58.539l-1.499 1.757c0 1.566.01 3.131.029 4.697.363.43 1.107 1.298 1.48 1.728-.086 34.472.01 68.935-.048 103.407-2.788 4.067-3.78 9.222-7.446 12.687-.582 3.904-4.85 4.401-7.608 6.177-1.317 1.002-3.007 1.107-4.592 1.098-11.341-.105-22.682.029-34.023-.067-.401-.42-1.222-1.251-1.632-1.671-1.461 0-2.921 0-4.372.019-.649.563-1.289 1.126-1.928 1.699-6.081-.038-12.153-.019-18.234-.01l-1.871-1.68c-1.461-.019-2.921-.029-4.382-.029l-1.604 1.671c-2.072-.01-4.143.019-6.205.019-.64-.601-1.289-1.174-1.938-1.737-7.704.143-15.408-.019-23.102.067-1.317-.153-2.196.974-3.198 1.604-2.463.095-4.916.086-7.379.086-.621-.573-1.241-1.136-1.862-1.69-2.711-.01-5.823-.64-7.866 1.613-22.195.143-44.4.048-66.586.048-2.883-1.26-5.852-2.224-9.088-1.661-.401.41-1.203 1.222-1.613 1.632-3.265-.143-7.131 1.041-9.718-1.585-2.415-.076-4.84-.076-7.255-.057-.601.554-1.212 1.107-1.814 1.671-3.188-.162-7.017.964-9.518-1.623-3.418-.115-6.845-.076-10.262.038-1.012.582-1.862 1.699-3.15 1.585-7.866.048-15.742.057-23.599-.038-.41-.41-1.212-1.232-1.613-1.642-4.821.878-9.079-1.518-13.04-3.904-3.064-2.616-6.864-4.057-10.444-5.804-1.938-3.389-3.952-6.864-6.663-9.709-.048-1.489-.076-2.988-.134-4.477-1.947-1.785-1.384-4.439-1.613-6.787-.563-1.89-1.48-3.685-1.508-5.69-.506-.63-1.031-1.251-1.547-1.871 0-6.644-.01-13.279.01-19.923l1.642-1.575c.095-4.611.029-9.222.048-13.823l-1.776-1.919c-.029-2.262-.115-4.706 1.718-6.348.115-7.637.048-15.284.029-22.921l-1.642-1.566c-.067-5.651-.048-11.303-.01-16.964.563-.621 1.126-1.241 1.699-1.852l-.038-16.849c-.42-.401-1.251-1.193-1.661-1.594 0-2.052-.01-4.095-.019-6.148.42-.42 1.27-1.26 1.699-1.68 0-1.976-.019-3.952-.105-5.919-.621-.993-1.718-1.871-1.585-3.169-.076-7.265.019-14.53-.01-21.804.42-.401 1.241-1.193 1.652-1.594.01-.955.01-1.9 0-2.845-1.909-1.613-1.728-4.105-1.709-6.358.592-.611 1.174-1.231 1.757-1.842 0-4.038.019-8.067-.029-12.105-.573-.649-1.136-1.308-1.699-1.957.048-9.671.038-19.341 0-29.021l1.69-1.9c.029-2.998.057-5.995.057-8.993l-1.652-1.661c-.076-3.045-.143-6.081.019-9.126.573-.964 1.594-1.785 1.585-2.998.134-4.725-.029-9.451.01-14.186-.563-.621-1.126-1.251-1.69-1.881.029-4.038-.086-8.086.124-12.124 1.203-1.642 2.119-3.465 3.007-5.289.019-.582.076-1.728.105-2.301 2.167-2.167 1.442-5.298 1.547-8.048 3.103-3.246 6.501-7.351 11.484-7.064 3.236-.305 7.169 1.136 9.728-1.527 3.504-.124 6.998-.057 10.501-.095.63.544 1.27 1.088 1.909 1.632 2.453.029 4.907.01 7.37.029l1.842-1.642c6.404.004 12.81.004 19.216.014zm225.772 8.047c-2.453 2.912-6.1 4.993-7.303 8.783-3.112 2.673-3.484 7.083-6.472 9.871-3.599-.22-7.265-.277-10.558 1.384-6.74.181-13.499-.038-20.238.076-.449-.325-1.356-.974-1.814-1.298-3.122.353-5.174-1.976-7.026-4.086-.076-1.031-.153-2.052-.22-3.083-1.909-4.43-5.489-7.924-9.881-9.9-2.282 1.365-5.06 2.358-6.291 4.907-.888 1.852-2.129 3.484-3.675 4.83-.038 2.558-.019 5.117-.029 7.675.372.382 1.107 1.146 1.47 1.527-.01 2.129-.019 4.267-.01 6.396l-1.47 1.613c0 1.947 0 3.885-.01 5.833.363.401 1.107 1.193 1.48 1.594.01 2.692.01 5.394 0 8.095-.382.401-1.136 1.212-1.518 1.623.038 1.356.086 2.711.153 4.067.525.993 1.461 1.881 1.365 3.112.124 4.143-.086 8.296.048 12.449 1.594 1.823 2.272 4.162 3.389 6.253 2.368 2.721 3.637 6.253 6.463 8.592 3.694 4.296 9.47 5.422 14.406 7.599l1.442-1.327 5.852-.038c.64.563 1.279 1.126 1.919 1.699 2.473.029 4.945.019 7.427.029.63-.554 1.26-1.117 1.9-1.671.706-.038 2.1-.115 2.797-.143 1.079-.64 2.348-1.957 3.647-.907l6.492 3.37c1.852 1.9 2.511 4.716 4.802 6.282.019 2.167.038 4.334.086 6.511-2.816 1.823-6.472 1.623-9.04 3.809-10.176.029-20.353-.019-30.529.019-.716-.687-1.441-1.365-2.167-2.033-.964.62-1.9 1.26-2.835 1.909l-2.749.22c-1.995 1.098-4.134 2.072-5.709 3.79-3.246 3.475-7.208 6.425-9.04 10.978.506 4.525-1.499 9.833 1.365 13.775.296 3.16-.907 7.026 1.709 9.489.048 2.473.038 4.945.038 7.418l-1.642 1.642c-.038 1.069-.067 2.129-.095 3.208-.363.382-1.079 1.155-1.441 1.547l.029 15.341c.363.372 1.088 1.136 1.451 1.518 0 5.098.029 10.196-.029 15.303l1.747 2.014c-.029 2.033-.057 4.067-.057 6.1-.401.391-1.212 1.174-1.613 1.556-.048 1.499-.067 2.998-.143 4.496-1.012 1.241-1.432 2.778-1.604 4.353l1.69 1.728c.067 3.742-.076 7.494.019 11.236-.124 1.308 1.012 2.167 1.632 3.179.048 1.995.048 3.981.048 5.976l-1.652 1.632c.239 2.31-.172 4.563-1.203 6.644-.038 2.243 1.728 4.019 2.807 5.871.019 1.442.038 2.883.076 4.334-.563.592-1.117 1.193-1.671 1.804l-.153 2.902c-.487.926-1.356 1.757-1.327 2.883-.153 4.659.057 9.317-.076 13.976.372.42 1.107 1.251 1.47 1.671.019 1.06.038 2.119.067 3.179l1.632 1.604c-.124 3.255-.191 6.854 2.043 9.499 2.196 2.52 3.379 5.823 6.024 7.952 2.272 2.52 5.919 2.788 8.382 5.06 1.499 0 3.007.01 4.515.038.401.382 1.222 1.136 1.623 1.508 5.107-.057 10.205 0 15.303-.048.382-.372 1.146-1.107 1.527-1.47 9.241.01 18.491.01 27.732-.01.668-.544 1.336-1.088 2.014-1.623 7.694 1.021 14.482-6.912 12.849-14.358-1.919-4.191-5.308-7.265-8.62-10.339-5.317.067-10.625.038-15.933.067-2.033.153-3.675-1.251-5.623-1.461-1.986-.143-3.962-.048-5.938.019-.649-.573-1.298-1.146-1.938-1.718-2.683-.01-5.833-.687-7.838 1.604-2.406.105-4.811.086-7.208 0-2.94-1.699-6.157-3.227-7.742-6.425 1.881-2.625 3.055-5.776 5.862-7.647 3.637-.277 6.816-2.511 10.606-1.709.468.401 1.413 1.193 1.881 1.585 3.408-.124 6.845.286 10.234-.172 1.547-.716 3.112-1.489 4.869-1.499.477-.315 1.432-.926 1.909-1.231l1.919 1.231c2.081-.086 3.742 1.26 5.69 1.718 2.406.487 4.382-1.241 6.635-1.699 1.986-.458 3.78-1.451 5.575-2.396 4.134-1.308 6.167-6.138 5.766-10.196-1.632-2.444-2.797-5.222-5.241-7.026l.792-.2c-2.511.382-4.267-1.604-5.804-3.227-1.537-.029-3.074-.01-4.611-.019-.401-.363-1.203-1.098-1.604-1.47-4.964.095-9.938-.01-14.902.019-2.014.019-3.609 1.68-5.661 1.508-6.396-.029-12.792 0-19.188-.01-2.043.067-3.78-1.136-5.518-2.024-.449-1.375-1.155-2.616-2.024-3.742-1.069-3.933 1.842-6.682 4.582-8.926 1.021-1.117 2.625-.802 3.971-1.012.621-.525 1.241-1.05 1.871-1.566 2.959 0 5.919-.01 8.888-.038.821.687 1.652 1.365 2.492 2.043.792-.63 1.604-1.241 2.425-1.833 1.699-.038 3.313-.477 4.754-1.384l1.547 1.212c4.277.468 8.506-.85 12.305-2.711 2.234 1.833 5.651 1.814 7.838-.095l2.74-.267c2.291-1.432 4.821-2.616 6.625-4.697 1.623-1.613 2.348-3.838 3.704-5.632-.019-1.451-.01-2.902-.067-4.344-3.761-3.504-7.169-8.42-12.878-8.458l-1.623-1.203c-5.069 2.816-11.026 3.398-16.678 2.558-2.005-.754-4.22-1.986-6.367-.945-2.597 1.308-5.718 1.823-8.458.659-3.313-1.671-7.103-.726-10.644-1.002-1.279-1.327-2.578-2.635-3.885-3.924l.048-2.921c1.155-1.757 1.957-3.752 3.36-5.336 1.604-1.442 3.609-2.291 5.413-3.427 2.453.143 4.754-.601 6.997-1.508 3.227 1.909 7.093 1.566 10.673 1.212 2.778-1.518 6.148-.907 8.821-2.625 1.184-.859 2.158.764 3.103 1.27 1.375.029 2.749.038 4.143.048.63-.535 1.26-1.06 1.89-1.585l2.959-.019c1.146-1.174 2.329-2.358 3.876-2.998 2.52-.888 3.122-3.752 4.601-5.69.095-2.463.115-4.926.086-7.389-3.332-3.131-6.32-6.635-9.795-9.594-2.1-1.012-4.792-.764-6.902.162-2.377 1.279-5.441.21-7.484 2.234-2.501.277-4.687 1.833-7.227 1.757-4.802-.019-9.594-.048-14.396.01-2.32.172-4.401-.926-6.444-1.842-1.279-1.212-2.52-2.463-3.752-3.704.038-3.055.01-6.11-.019-9.165 1.251-1.346 2.549-2.635 3.799-3.971 1.079-.048 2.157-.076 3.236-.095.41-.439 1.241-1.327 1.661-1.766 2.043-.029 4.067.506 5.518 2.024 2.444-2.788 6.472-1.422 9.422-3.322 3.694-.067 7.503-.458 11.141.22 2.998 2.558 5.947-1.26 9.279-.382 3.838-1.594 6.864-4.525 9.451-7.704 2.702-4.22 4.162-9.136 7.045-13.241.086-2.282.601-4.802-.764-6.835-1.566-2.587-.659-5.737-.773-8.582l1.652-1.642c-.048-4.515.048-9.031-.076-13.546-1.613-2.005-2.444-4.449-3.551-6.721-3.857-1.499-6.625-5.566-11.179-5.212-.41-.363-1.241-1.107-1.652-1.48-3.16.458-6.157-.344-9.079-1.403-8.916-.143-17.842.019-26.768-.076-1.776-.22-3.294.726-4.869 1.356-1.585-.181-2.978-1.06-4.401-1.69-.487-1.365-1.193-2.625-2.11-3.742-.076-2.024-.095-4.048-.095-6.072 1.823-1.69 3.351-3.742 5.413-5.155 2.31-.621 4.544-1.699 6.95-1.947 11.608 0 23.217.067 34.825-.019 1.814-1.48 4.067-2.196 6.129-3.236 4.897-3.112 7.284-8.592 10.377-13.26.153-5.537.029-11.064.076-16.601-3.122-3.265-4.974-7.561-8.735-10.281-1.005.046-2.007.103-3 .179zm-279.834 15.599c2.807 6.663 9.012 11.551 15.837 13.499 6.062.191 12.143.01 18.215.086 2.348.143 4.191-1.89 6.568-1.556 7.981.048 15.952.048 23.933-.01 2.702-.258 4.859 2.1 7.628 1.585 3.16-.258 6.921.84 9.518-1.518 2.912-.067 5.833-.01 8.745-.038.458.382 1.365 1.146 1.814 1.527 8.239-.01 16.477.01 24.716-.019l1.833-1.518c3.294-.038 6.759-.401 9.718 1.365 5.394.43 10.835.01 16.248.2 2.091.267 3.943-.735 5.823-1.47 3.198-.258 6.415.01 9.623-.105l1.804 1.527c4.659.019 9.327.019 13.985.01 3.055-3.16 6.577-5.976 8.334-10.138.076-1.9.134-3.799.153-5.69-2.854-2.358-3.656-6.301-6.702-8.477-3.246-.678-5.699-3.685-9.174-3.36-30.128-.01-60.266-.029-90.395.01-.41.391-1.231 1.165-1.642 1.547-.649-.01-1.957-.029-2.606-.048l-2.005 1.289c-2.014-1.251-4.554-1.212-6.444-2.711-16.888-.181-33.775-.105-50.663-.038-5.737 3.607-13.012 6.911-14.864 14.051zm23.819 21.575c-.334.382-1.012 1.155-1.346 1.547l-6.291.019-1.613 1.499c-1.088.048-2.186.115-3.274.22-1.375 1.699-3.246 2.797-5.155 3.809-3.399 2.081-3.761 6.492-6.234 9.355.153 1.671-.601 3.742.754 5.069 3.351 3.494 6.587 7.236 11.074 9.308 4.859-.42 9.623.687 13.947 2.873 1.146.716 2.091-.706 3.045-1.155 1.9-.172 3.704-.735 5.289-1.814 1.575 1.174 3.465 1.68 5.413 1.766l1.594 1.47c1.079 0 2.157.01 3.236.029 1.289 1.375 2.616 2.711 3.876 4.114-.124 7.217 0 14.434-.095 21.661-.172 2.606 1.585 4.811 1.728 7.398 1.251 1.938 2.138 4.076 3.122 6.167 2.148 3.188 5.327 5.48 7.857 8.353 1.795 2.072 4.038 3.666 6.587 4.678 2.959-2.587 6.558.735 8.773 2.835-.057 1.957.048 3.933-.2 5.881-1.499 2.196-3.427 4.172-5.632 5.651-9.222.267-18.472 0-27.704.115l-1.881-1.575c-2.368-.01-4.745-.01-7.112.048-2.014 2.702-4.678.573-6.94-.458-3.322-2.797-6.711-6.387-6.835-10.988 3.083-2.807 1.327-7.303 1.795-10.94.516-3.083-1.881-5.289-2.797-7.981-.964-2.482-3.465-4.038-4.143-6.682-1.432-.611-2.845-1.346-4.382-1.661-2.368 1.499-4 3.847-6.091 5.671-1.031 1.155-2.74 2.148-2.606 3.924-.067 10.444.019 20.888-.029 31.331-.41.41-1.241 1.231-1.661 1.632l-.019 9.098c5.031 4.267 8.764 11.475 16.105 11.761.621.506 1.251 1.021 1.871 1.537 3.99.029 7.99.095 11.981-.038.792-.64 1.623-1.232 2.482-1.785.974.468 1.842 1.126 2.711 1.766 1.508.048 3.017.095 4.525.134.401.363 1.193 1.088 1.594 1.441 8.134-.105 16.258.115 24.391-.115 1.499-1.699 3.628-1.594 5.222-.076 3.78-.229 5.728 3.36 8.21 5.566.019 1.203.038 2.406.048 3.618-2.52 1.9-5.384 3.924-8.697 3.666-8.916-.086-17.823.01-26.73-.067-2.368-.181-4.277 1.671-6.635 1.527-8.324-.038-16.658-.038-24.983-.038-4.792.43-7.914 4.535-11.141 7.637-1.146 1.241-2.988 2.539-2.368 4.487.897 3.656 3.456 6.74 6.492 8.869 1.69.859 3.322 1.833 4.687 3.179 1.308.554 2.578 1.232 3.704 2.129 1.757.22 3.332-.353 4.573-1.604 2.444-.105 4.888-.115 7.322 0 1.699 2.052 4.506 2.072 6.453.325 2.167 2.024 5.403.64 7.742 2.339l1.661-.85c3.322 1.203 5.632 3.714 6.768 7.045.382 2.807 2.138 5.327 1.776 8.239.315 3.179-2.549 5.193-4.945 6.635-3.399 2.043-7.513 1.05-11.255 1.212-.41.382-1.222 1.146-1.632 1.537-2.788-.2-5.06 1.842-7.838 1.795-.382.305-1.146.936-1.527 1.251-1.489.057-2.978.086-4.468.2-1.155.783-2.396 1.432-3.685 1.986-4.869 5.231-11.083 9.47-14.281 16.019l-.258 2.616c-2.272 3.389-1.193 7.713-1.241 11.542 2.854 4.43-.296 10.167 3.045 14.358 2.11 2.558 3.227 5.833 5.785 8.009.124.525.382 1.575.516 2.1 3.437.63 4.888 4.344 8.048 5.499 2.234 1.126 4.535 2.119 6.702 3.379 2.196 1.566 5.021.936 7.532 1.05.468.439 1.394 1.317 1.862 1.766 4.344-3.255 10.119-1.193 15.112-1.776l1.594-1.632c5.289.029 10.597-.105 15.885.01 1.231-.086 2.033.983 2.998 1.556 28.601.21 57.202.048 85.813.086 1.652.277 2.988-.611 4.191-1.613 1.919-.076 3.847-.076 5.776 0 1.117.764 2.367 2.32 3.761 1.05 1.833-1.26 3.847-2.177 5.957-2.883 1.709-1.671 3.427-3.332 5.088-5.05.01-2.539-.019-5.079-.057-7.618-1.547-3.437-4.162-6.129-6.873-8.659-3.647-.019-7.284-.038-10.921-.019l-1.623-1.518c-3.971.029-7.943.038-11.904.019-.63.496-1.251 1.002-1.862 1.508-5.174 0-10.339-.095-15.503.029-1.365-.21-2.291.859-3.284 1.566-1.451.038-2.893.067-4.334.095-.601-.573-1.203-1.146-1.804-1.699-1.976 0-3.962-.01-5.938-.019-.611.563-1.222 1.126-1.823 1.699l-4.258-.048c-2.033-2.205-5.098-1.632-7.78-1.566-2.167 2.32-6.148 2.31-8.305-.01-5.632-.124-11.274-.105-16.907-.019-1.251-.134-2.148.859-3.16 1.384-2.186.229-4.095 1.451-6.243 1.785-4.764-2.52-10.205-1.289-15.36-1.518-2.702-.143-5.947.716-7.962-1.623-3.589-.115-7.179-.076-10.759-.076-.41-.344-1.222-1.041-1.623-1.384-3.169-.067-5.9-1.699-8.344-3.561.019-1.165.048-2.329.086-3.484 1.547-3.465 4.105-6.253 6.902-8.764 4.716-.067 9.432.086 14.148-.048 1.298.115 2.272-.811 3.265-1.489.601.01 1.804.01 2.415.01.487-.372 1.47-1.117 1.967-1.489l13.336-.019c2.348-.01 4.277 1.728 6.663 1.642l1.833 1.384 4.554-.048 1.527-1.365c2.893-.076 5.365-2.014 8.315-1.69 3.093-.516 5.632 1.613 8.639 1.728.439.344 1.336 1.031 1.776 1.365 10.759.076 21.508-.076 32.267.076.936.621 1.804 1.632 3.064 1.527 5.069.325 10.215-.439 15.246.277 3.122 1.442 6.854 1.852 10.11.63 3.236-1.585 6.921-.649 10.386-.945 2.921-2.549 8.076-2.692 9.06-7.122 1.021-1.251 2.205-2.406 2.921-3.876 2.062-3.36 1.021-7.437 1.308-11.15 3.036-3.427 1.021-8.429 1.604-12.563l-1.613-1.575c-.382-5.566.945-11.427-1.346-16.649 2.654-5.699 1.403-12.477-.84-18.11-3.379-3.437-6.482-7.389-11.093-9.241-2.434-.21-4.554-1.709-6.997-1.757-17.527.095-35.064-.01-52.591.057-2.157.076-3.904-1.413-5.938-1.881-.372-2.186-.439-4.401-.449-6.606 1.795-1.871 3.57-3.771 5.499-5.508 2.091.134 3.866-.85 5.613-1.842 1.566.716 2.959 2.033 4.821 1.747 7.847-.105 15.704.067 23.551-.115 1.136-1.098 2.549-1.68 4.143-1.642 2.635.019 4.916-2.224 7.599-1.365 1.776.63 3.542 1.336 5.422 1.623.993.372 1.881 1.833 3.007 1.241 3.093-1.814 6.396-3.255 9.604-4.859 2.253-1.547 3.685-4.296 6.616-4.706 2.406-2.301 2.74-5.842 4.945-8.296-.344-3.628 1.241-8.009-1.575-10.94-.057-2.931-.019-5.861-.038-8.792.544-.678 1.098-1.346 1.661-2.024l-.01-4.153c-.516-.649-1.012-1.308-1.508-1.957-.315-3.064-2.177-5.795-1.623-8.974-.401-.42-1.193-1.26-1.594-1.69-.029-1.06-.057-2.119-.076-3.179-1.508-1.47-2.912-3.045-4.506-4.43-1.623-1.747-3.742.449-5.508.907-.983 4.172-5.747 5.785-7.16 9.709-.64 1.795-1.566 3.465-2.711 4.993-.048.678-.162 2.052-.22 2.74-2.74 4.687-3.246 10.224-2.74 15.551-2.558 2.826-6.291 4.525-10.138 4.029l-1.652 1.537c-7.236-.019-14.472 0-21.709.019-1.174.019-2.177-.401-3.026-1.241-1.241 1.165-3.036 1.155-4.62 1.375-.955.573-1.881 1.193-2.816 1.795-.726-.649-1.451-1.289-2.167-1.938l-3.16-.029-2.262-2.262c-.038-2.654-.029-5.308-.019-7.962 2.348-2.272 4.649-4.592 6.95-6.921 1.021-.057 2.043-.105 3.064-.143 6.062-3.58 12.086-7.513 16.248-13.317.993-2.081 1.69-4.334 3.227-6.11l.115-3.064c.382-.41 1.126-1.241 1.499-1.652-.076-7.169 0-14.339-.038-21.508 1.804-1.881 3.656-3.723 5.537-5.527 1.48 0 2.969-.01 4.458-.019l1.842 1.661h2.902c.382.296 1.155.878 1.547 1.174 1.384-1.021 3.026-1.384 4.725-1.298l1.699-1.403c2.893-.086 5.499-1.413 7.761-3.15 4.936.554 10.558-1.279 12.897-5.957 1.126-2.807 3.504-5.289 3.198-8.496-.516-3.246-2.253-6.873-5.785-7.58-.85-.831-1.69-1.661-2.539-2.473l-7.914-1.833c-.401-.382-1.203-1.136-1.604-1.508-1.785-.057-3.504.334-4.83 1.585l-2.501.067-1.833 1.298c-1.47-1.441-3.303-1.403-4.811-.019-.468-.305-1.403-.926-1.871-1.241-2.1.029-4.391.172-5.957-1.508-24.448-.229-48.897-.048-73.345-.105-1.556-.172-2.998.353-4.191 1.336-.382-.334-1.146-.993-1.527-1.317-3.551.382-7.637-1.041-10.749 1.184-1.556-1.384-3.351-1.394-4.84.143-.372-.334-1.117-1.012-1.48-1.346h-4.611c-.41-.382-1.222-1.165-1.623-1.556-2.473.315-4.773-.43-7.017-1.356-2.613 1.478-5.591 1.516-8.493 1.363zm166.231 33.909c-.983.076-1.957.162-2.931.248-1.976 1.518-4.267 2.52-6.616 3.303-.477 1.365-1.184 2.635-2.072 3.78-.057 1.422-.115 2.854-.143 4.286 1.737 1.699 3.37 3.513 5.126 5.212 1.661 1.623 4.048 2.215 5.68 3.857 1.222 1.384 1.737 3.227 2.902 4.649 2.778 2.864 5.527 6.854 10.119 5.842 1.881-1.823 3.79-3.637 5.632-5.508-.029-2.043-.019-4.086-.019-6.129-.936-.869-1.871-1.737-2.797-2.606l-.496-2.138c-2.959-2.406-3.924-6.167-5.728-9.365-1.279-2.883-3.694-5.06-6.157-6.921-.887.402-1.717.898-2.5 1.49zm-164.208 11.102c-1.699 1.537-2.683 4.038-2.597 6.339 1.422 2.702 4.573 4.248 5.203 7.456 1.795-.038 3.599-.067 5.403-.086.172-2.348.468-4.935-1.155-6.883-1.555-2.74-2.567-7.876-6.854-6.826zm121.641 10.244c1.47 1.842 3.628 2.196 5.871 1.823-.038-1.919-.067-3.838-.067-5.747-1.27-.095-2.539-.162-3.799-.22-.497 1.452-1.127 2.874-2.005 4.144zm-12.411 34.118c1.107.468 2.339.458 3.523.63.792-.84 1.613-1.661 2.32-2.568.305-1.842-1.413-3.208-2.921-3.819-2.444.679-3.599 3.409-2.922 5.757zm50.759 38.921c-1.623 1.575-3.179 3.208-4.706 4.869 1.126 1.308 1.68 2.95 2.434 4.477 1.136 1.642 3.265 2.052 4.745 3.294 2.1-2.282 5.766-4.086 5.48-7.675-.496-3.666-2.558-8.63-7.16-7.694-.259.906-.526 1.822-.793 2.729zm-1.022 100.6c1.146 1.251 2.396 2.425 3.561 3.685.726-.726 1.461-1.451 2.196-2.167-.029-1.785-.048-3.57-.067-5.346-1.251-.076-2.501-.124-3.742-.153-.506 1.394-1.127 2.74-1.948 3.981zM169.661 175.845c3.141-3.141 6.367-7.246 11.227-7.255 3.322.048 6.854-.592 9.966.897 3.561 1.48 7.589-.286 11.198.974 2.119 1.117 4.22 2.253 6.425 3.208.649 2.043 2.072 3.656 3.628 5.069.038 2.597.019 5.193-.019 7.799-.401.401-1.212 1.203-1.623 1.604l-.019 3.265c-1.317 1.231-2.616 2.492-3.924 3.723-1.432-.029-2.864-.048-4.296-.086l-1.642 1.489c-4.267.067-8.525.038-12.783.019-.706-.63-1.422-1.241-2.138-1.833-.764.582-1.518 1.174-2.262 1.785-.993.057-1.995.115-2.988.181-.773.601-1.575 1.155-2.415 1.652-1.499-.687-2.902-1.556-4.468-2.1-1.222-1.146-2.396-2.339-3.532-3.561.048-3.045.038-6.081.057-9.117l-1.652-1.69c.162-2.033-.602-4.562 1.26-6.023zM451.452 199.816c1.499-2.444 5.355-2.501 6.816.019 1.537 1.632-.621 3.303-1.575 4.535-1.241-.057-2.482-.067-3.723-.057-1.003-1.203-2.989-2.874-1.518-4.497zM467.948 212.36c1.575-.181 3.752-1.241 4.821.516.353 2.129.773 6.358-2.654 5.651-3.313.115-1.757-4.124-2.167-6.167zM449.409 243.73c1.279-1.251 2.558-2.52 3.809-3.799 1.413 1.021 2.501 2.396 2.835 4.143-1.632.554-3.217 1.241-4.687 2.11-.678-.812-1.318-1.633-1.957-2.454zM233.498 304.464c1.613-1.613 3.58-2.797 5.671-3.685 3.57 2.434 8.181.726 12.2 1.241.363-.372 1.098-1.136 1.461-1.518l2.014 1.375c4.983-.325 7.265 4.888 8.764 8.764 1.795 2.74 3.303 5.747 2.893 9.126l-1.613 1.766c-.029.716-.076 2.138-.095 2.845-1.279 1.881-2.043 4.153-3.752 5.709-2.329 2.167-5.709 2.578-8.086 4.687-1.995.048-3.981.057-5.967.086l-1.604-1.604c-1.041-.095-2.081-.172-3.112-.248-1.833-1.174-4.42-1.699-5.26-3.952-.735-1.804-2.024-3.284-3.437-4.592-.039-6.664.104-13.337-.077-20zM175.398 303.624c1.747.01 3.427-.391 4.897-1.365l1.527 1.212c6.043-.038 12.095.048 18.138 0 1.451.076 2.673-.831 4-1.27 4.019.315 6.673 3.513 7.924 7.103.305 1.957 1.088 3.78 1.728 5.651.611 3.007-2.081 5.47-1.489 8.506.315 2.568-.095 5.356-2.52 6.788-4.601 4.458-11.284 2.482-16.993 2.94-.391.41-1.174 1.231-1.575 1.642h-4.535l-1.804-1.68c-2.377-.038-4.936.391-7.141-.706-3.055-1.27-5.184-3.885-7.475-6.157-.048-3.055-.029-6.11-.134-9.155-1.251-1.375-1.728-3.074-1.594-4.907 3.008-2.34 3.8-6.445 7.046-8.602z"/></svg>